<svg width="122" height="55" viewBox="0 0 132 61" fill="none" xmlns="http://www.w3.org/2000/svg">
<path d="M48.915 31H45.4492L42.5474 26.8472L39.584 31H37.1846L41.645 25.5449L37.1846 19.1567H40.6504L43.46 23.1763L46.5156 19.1567H48.915L44.3623 24.4683L48.915 31ZM60.9634 22.0894L59.4663 22.6841C59.2271 21.9321 58.8271 21.3545 58.2666 20.9512C57.7061 20.5479 57.0327 20.3462 56.2466 20.3462C55.8228 20.3462 55.4434 20.4146 55.1084 20.5513C54.7803 20.6812 54.4897 20.8623 54.2368 21.0947C53.9907 21.3271 53.7788 21.5972 53.6011 21.9048C53.4302 22.2124 53.29 22.5405 53.1807 22.8892C53.0713 23.2378 52.9927 23.6001 52.9448 23.9761C52.897 24.3452 52.873 24.7041 52.873 25.0527C52.873 25.4287 52.8936 25.8081 52.9346 26.1909C52.9756 26.5737 53.0439 26.9429 53.1396 27.2983C53.2422 27.647 53.3755 27.9751 53.5396 28.2827C53.7036 28.5835 53.9087 28.8467 54.1548 29.0723C54.4077 29.2979 54.7051 29.4756 55.0469 29.6055C55.3955 29.7354 55.7954 29.8003 56.2466 29.8003C56.6089 29.8003 56.9541 29.7456 57.2822 29.6362C57.6104 29.5269 57.9111 29.373 58.1846 29.1748C58.458 28.9766 58.7007 28.7407 58.9126 28.4673C59.1245 28.1938 59.292 27.8896 59.415 27.5547L60.9224 28.1084C60.6968 28.6484 60.396 29.1167 60.02 29.5132C59.6509 29.9028 59.2305 30.2275 58.7588 30.4873C58.2871 30.7402 57.7812 30.9282 57.2412 31.0513C56.7012 31.1743 56.1543 31.2358 55.6006 31.2358C54.7051 31.2358 53.8745 31.0854 53.1089 30.7847C52.3433 30.4771 51.6802 30.0498 51.1196 29.5029C50.5659 28.9492 50.1318 28.2964 49.8174 27.5444C49.5029 26.7856 49.3457 25.9551 49.3457 25.0527C49.3457 24.1436 49.4995 23.3096 49.8071 22.5508C50.1216 21.792 50.5557 21.1392 51.1094 20.5923C51.6631 20.0454 52.3228 19.6216 53.0884 19.3208C53.854 19.02 54.6914 18.8696 55.6006 18.8696C56.1748 18.8696 56.7354 18.9346 57.2822 19.0645C57.8291 19.1875 58.335 19.3823 58.7998 19.6489C59.2715 19.9087 59.6919 20.2402 60.061 20.6436C60.437 21.0469 60.7378 21.5288 60.9634 22.0894ZM73.0835 20.2026L71.1353 23.4326C71.0532 23.1592 70.9473 22.8516 70.8174 22.5098C70.6875 22.168 70.5269 21.8501 70.3354 21.5562C70.144 21.2554 69.915 21.0059 69.6484 20.8076C69.3818 20.6025 69.0742 20.5 68.7256 20.5C68.4043 20.5 68.124 20.582 67.8848 20.7461C67.6523 20.9102 67.4541 21.1255 67.29 21.3921C67.126 21.6519 66.9893 21.9492 66.8799 22.2842C66.7773 22.6123 66.6953 22.9473 66.6338 23.2891C66.5791 23.624 66.5415 23.9487 66.521 24.2632C66.5005 24.5708 66.4902 24.8374 66.4902 25.063V31H63.0142V19.1567H64.3472L65.752 21.915C65.9434 21.4707 66.1621 21.064 66.4082 20.6948C66.6543 20.3188 66.938 19.9976 67.2593 19.731C67.5806 19.4575 67.9429 19.2456 68.3462 19.0952C68.7563 18.9448 69.2178 18.8696 69.7305 18.8696C69.9971 18.8696 70.2944 18.8936 70.6226 18.9414C70.9507 18.9824 71.272 19.0576 71.5864 19.167C71.9009 19.2695 72.1914 19.4062 72.458 19.5771C72.7246 19.748 72.9331 19.9565 73.0835 20.2026ZM87.1313 25.0527C87.1313 25.9141 87.0015 26.7207 86.7417 27.4727C86.4819 28.2246 86.106 28.8809 85.6138 29.4414C85.1216 29.9951 84.52 30.4326 83.8091 30.7539C83.0981 31.0752 82.2915 31.2358 81.3892 31.2358C80.6987 31.2358 80.063 31.1025 79.4819 30.8359C78.9077 30.5625 78.4155 30.1455 78.0054 29.585V36.4653H74.5396V19.1567H75.8726L77.4106 21.7305C77.561 21.2998 77.7661 20.9102 78.0259 20.5615C78.2925 20.2061 78.5967 19.9053 78.9385 19.6592C79.2871 19.4062 79.6665 19.2114 80.0767 19.0747C80.4937 18.938 80.9312 18.8696 81.3892 18.8696C82.2915 18.8696 83.0981 19.0303 83.8091 19.3516C84.52 19.6729 85.1216 20.1138 85.6138 20.6743C86.106 21.228 86.4819 21.8809 86.7417 22.6328C87.0015 23.3848 87.1313 24.1914 87.1313 25.0527ZM83.6143 25.0527C83.6143 24.752 83.5972 24.4341 83.563 24.0991C83.5356 23.7573 83.4844 23.4189 83.4092 23.084C83.334 22.749 83.228 22.4277 83.0913 22.1201C82.9614 21.8125 82.7939 21.5425 82.5889 21.3101C82.3838 21.0708 82.1343 20.8828 81.8403 20.7461C81.5532 20.6025 81.2183 20.5308 80.8354 20.5308C80.439 20.5308 80.0938 20.5991 79.7998 20.7358C79.5127 20.8726 79.2632 21.0605 79.0513 21.2998C78.8462 21.5322 78.6753 21.8022 78.5386 22.1099C78.4087 22.4106 78.3062 22.7285 78.231 23.0635C78.1558 23.3984 78.1011 23.7368 78.0669 24.0786C78.0396 24.4204 78.0259 24.7451 78.0259 25.0527C78.0259 25.3262 78.0464 25.6304 78.0874 25.9653C78.1284 26.2935 78.1934 26.625 78.2822 26.96C78.3711 27.2949 78.4873 27.6196 78.6309 27.9341C78.7744 28.2485 78.9487 28.5288 79.1538 28.7749C79.3657 29.021 79.6084 29.2192 79.8818 29.3696C80.1621 29.5132 80.48 29.585 80.8354 29.585C81.2251 29.585 81.5635 29.5166 81.8506 29.3799C82.1377 29.2363 82.3838 29.0483 82.5889 28.8159C82.7939 28.5767 82.9614 28.3032 83.0913 27.9956C83.228 27.688 83.334 27.3667 83.4092 27.0317C83.4844 26.6968 83.5356 26.3584 83.563 26.0166C83.5972 25.6748 83.6143 25.3535 83.6143 25.0527ZM93.5811 31H90.105V20.5308H87.9517V19.1567H90.105V14.7988H93.5811V19.1567H97.1699V20.5308H93.5811V31ZM117.104 24.0889C117.104 24.9023 117.008 25.75 116.816 26.6318C116.625 27.5137 116.355 28.375 116.006 29.2158C115.665 30.0498 115.251 30.8394 114.766 31.5845C114.28 32.3296 113.74 32.9756 113.146 33.5225L111.843 32.8149C112.042 32.4595 112.223 32.0596 112.387 31.6152C112.551 31.1709 112.701 30.7026 112.838 30.2104C112.975 29.7183 113.094 29.2124 113.197 28.6929C113.299 28.1733 113.385 27.6572 113.453 27.1445C113.528 26.625 113.583 26.1226 113.617 25.6372C113.651 25.1519 113.668 24.6973 113.668 24.2734C113.668 24.0342 113.662 23.7744 113.648 23.4941C113.634 23.2139 113.604 22.9336 113.556 22.6533C113.515 22.373 113.45 22.1064 113.361 21.8535C113.272 21.5938 113.149 21.3647 112.992 21.1665C112.841 20.9614 112.65 20.8008 112.417 20.6846C112.192 20.5615 111.918 20.5 111.597 20.5C111.283 20.5 111.013 20.5854 110.787 20.7563C110.568 20.9204 110.38 21.1357 110.223 21.4023C110.066 21.6689 109.939 21.9697 109.844 22.3047C109.755 22.6396 109.687 22.978 109.639 23.3198C109.591 23.6548 109.557 23.9761 109.536 24.2837C109.522 24.5913 109.516 24.8511 109.516 25.063V31H106.06V25.4834C106.06 25.2441 106.063 24.957 106.07 24.6221C106.077 24.2803 106.067 23.9248 106.04 23.5557C106.019 23.1865 105.975 22.8208 105.906 22.4585C105.845 22.0894 105.742 21.7612 105.599 21.4741C105.462 21.187 105.274 20.9546 105.035 20.7769C104.795 20.5923 104.495 20.5 104.132 20.5C103.825 20.5 103.565 20.5854 103.353 20.7563C103.148 20.9272 102.974 21.1494 102.83 21.4229C102.693 21.6895 102.584 21.9937 102.502 22.3354C102.427 22.6704 102.369 23.0088 102.328 23.3506C102.293 23.6855 102.273 24.0068 102.266 24.3145C102.259 24.6152 102.256 24.8647 102.256 25.063V31H98.7798V19.1567H100.113L101.384 21.915C101.671 20.958 102.123 20.2129 102.738 19.6797C103.36 19.1396 104.184 18.8696 105.209 18.8696C106.132 18.8696 106.897 19.061 107.506 19.4438C108.114 19.8267 108.593 20.4487 108.941 21.3101C109.14 20.9341 109.358 20.5957 109.598 20.2949C109.844 19.9941 110.114 19.7378 110.408 19.5259C110.708 19.314 111.04 19.1533 111.402 19.0439C111.765 18.9277 112.165 18.8696 112.602 18.8696C113.409 18.8696 114.096 19.0029 114.663 19.2695C115.237 19.5293 115.706 19.8916 116.068 20.3564C116.43 20.8213 116.693 21.375 116.857 22.0176C117.021 22.6533 117.104 23.3438 117.104 24.0889ZM122.261 25.3809C122.685 25.4766 123.109 25.5518 123.533 25.6064C123.957 25.6611 124.384 25.6885 124.814 25.6885C125.266 25.6885 125.683 25.6475 126.065 25.5654C126.455 25.4766 126.79 25.333 127.07 25.1348C127.357 24.9297 127.583 24.6597 127.747 24.3247C127.911 23.9897 127.993 23.5728 127.993 23.0737C127.993 22.6704 127.938 22.3013 127.829 21.9663C127.72 21.6313 127.556 21.3442 127.337 21.105C127.125 20.8657 126.862 20.6812 126.547 20.5513C126.233 20.4146 125.867 20.3462 125.45 20.3462C125.061 20.3462 124.708 20.418 124.394 20.5615C124.086 20.7051 123.813 20.8999 123.574 21.146C123.341 21.3853 123.14 21.6655 122.969 21.9868C122.805 22.3081 122.668 22.6431 122.559 22.9917C122.449 23.3403 122.371 23.6924 122.323 24.0479C122.275 24.4033 122.251 24.7383 122.251 25.0527C122.251 25.1074 122.251 25.1621 122.251 25.2168C122.251 25.2715 122.254 25.3262 122.261 25.3809ZM130.803 23.043C130.803 23.5283 130.724 23.9624 130.567 24.3452C130.41 24.7212 130.194 25.0527 129.921 25.3398C129.654 25.627 129.343 25.8696 128.988 26.0679C128.632 26.2661 128.253 26.4302 127.85 26.5601C127.446 26.6831 127.029 26.772 126.599 26.8267C126.175 26.8813 125.761 26.9087 125.358 26.9087C124.845 26.9087 124.339 26.8745 123.84 26.8062C123.341 26.731 122.849 26.6147 122.364 26.4575C122.439 26.9087 122.559 27.3394 122.723 27.7495C122.887 28.1528 123.105 28.5083 123.379 28.8159C123.652 29.1167 123.987 29.356 124.384 29.5337C124.787 29.7114 125.262 29.8003 125.809 29.8003C126.171 29.8003 126.517 29.7456 126.845 29.6362C127.173 29.5269 127.474 29.373 127.747 29.1748C128.021 28.9766 128.26 28.7407 128.465 28.4673C128.677 28.1938 128.848 27.8896 128.978 27.5547L130.475 28.1084C130.249 28.6484 129.938 29.1167 129.542 29.5132C129.152 29.9028 128.708 30.2275 128.208 30.4873C127.716 30.7402 127.19 30.9282 126.629 31.0513C126.076 31.1743 125.525 31.2358 124.979 31.2358C124.076 31.2358 123.242 31.0854 122.477 30.7847C121.711 30.4771 121.051 30.0498 120.498 29.5029C119.944 28.9561 119.51 28.3032 119.195 27.5444C118.881 26.7856 118.724 25.9551 118.724 25.0527C118.724 24.1504 118.881 23.3198 119.195 22.561C119.51 21.8022 119.944 21.1494 120.498 20.6025C121.051 20.0557 121.711 19.6318 122.477 19.3311C123.242 19.0234 124.076 18.8696 124.979 18.8696C125.416 18.8696 125.864 18.9004 126.322 18.9619C126.78 19.0234 127.224 19.1226 127.655 19.2593C128.085 19.3892 128.492 19.5601 128.875 19.772C129.258 19.9839 129.589 20.2471 129.87 20.5615C130.157 20.8691 130.382 21.228 130.546 21.6382C130.717 22.0483 130.803 22.5166 130.803 23.043Z" fill="white"/>
<path d="M0.0342069 59.2013C-0.611205 42.9318 7.63054 10.8658 45.7858 0.538892C47.1642 0.165817 48.6077 0 50.0357 0H51.0408C47.2851 1.782 38.692 6.86069 34.3654 12.9195C33.1636 14.9985 30.85 21.6513 31.2106 31.6305L33.464 36.0855C34.5156 38.7585 35.6273 44.639 31.6613 46.7774C29.4078 47.9654 24.901 48.9158 24.901 43.2135V37.8675C25.0512 35.7885 24.9911 31.8087 23.5489 32.5215L21.7462 34.749C20.6945 36.234 18.4111 38.7585 17.69 36.9765L18.8479 29.7271C18.9498 29.0895 18.4572 28.512 17.8114 28.512C17.4476 28.512 17.1015 28.6658 16.8654 28.9426C14.6463 31.5446 10.5988 37.0572 9.5776 41.4315C8.82645 43.8075 7.4143 49.6286 7.77485 53.9054C7.18034 53.0239 6.76753 52.0314 6.64524 50.9752C6.38372 48.7166 6.14541 44.9273 6.42279 40.5405L5.52141 42.3225C4.86771 44.7995 3.88215 49.6352 3.80248 53.737C3.74903 56.4886 4.30643 60.5919 1.58225 60.9826C1.52923 60.9902 1.47552 60.9954 1.42113 60.998C0.543227 61.0404 0.0690466 60.0795 0.0342069 59.2013Z" fill="url(#paint0_linear_1449_2244)"/>
<defs>
<linearGradient id="paint0_linear_1449_2244" x1="25.5204" y1="0" x2="25.5204" y2="61" gradientUnits="userSpaceOnUse">
<stop stop-color="#622285"/>
<stop offset="1" stop-color="#F71872"/>
</linearGradient>
</defs>
</svg>
